<svg width="100" height="57" viewBox="0 0 100 57" fill="none" xmlns="http://www.w3.org/2000/svg">
<path d="M92.7476 48.3195H97.225V49.1373H90.4326V40.5151H97.0448V41.333H92.7476V44.3133H96.4765V45.1312H92.7476V48.3195Z" fill="white"/>
<path d="M86.0895 40.5151H88.155V49.1373H86.1727L82.2775 42.6915V49.1373H80.212V40.5151H82.2359L86.0895 46.9471V40.5151Z" fill="white"/>
<path d="M78.0452 41.6102V48.0422C78.0452 48.7723 77.6802 49.1373 76.9501 49.1373H71.5578C70.8277 49.1373 70.4627 48.7723 70.4627 48.0422V41.6102C70.4627 40.8802 70.8277 40.5151 71.5578 40.5151H76.9501C77.6802 40.5151 78.0452 40.8802 78.0452 41.6102ZM75.8135 47.8897V41.7627C75.8135 41.5779 75.7857 41.4624 75.7303 41.4162C75.6748 41.3607 75.5593 41.333 75.3837 41.333H73.1381C72.9625 41.333 72.847 41.3607 72.7915 41.4162C72.7361 41.4624 72.7084 41.5779 72.7084 41.7627V47.8897C72.7084 48.0746 72.7361 48.1947 72.7915 48.2502C72.847 48.2964 72.9625 48.3195 73.1381 48.3195H75.3837C75.5593 48.3195 75.6748 48.2964 75.7303 48.2502C75.7857 48.1947 75.8135 48.0746 75.8135 47.8897Z" fill="white"/>
<path d="M68.8045 40.5151V41.333L63.7448 48.3195H68.6658V49.1373H61.2081V48.3195L66.2539 41.333H61.4021V40.5151H68.8045Z" fill="white"/>
<path fill-rule="evenodd" clip-rule="evenodd" d="M0.789463 1.10514C1.84208 0.0525195 3.54871 0.0525195 4.60133 1.10514L28.1843 24.6881L51.7673 1.10514C52.2728 0.599652 52.9584 0.315674 53.6732 0.315674H97.3045C98.3947 0.315674 99.3776 0.972386 99.7948 1.97959C100.212 2.98679 99.9813 4.14612 99.2105 4.917L75.4686 28.6589C74.9631 29.1644 74.2775 29.4483 73.5626 29.4483H56.3686V53.9889C56.3686 55.0791 55.7119 56.0619 54.7047 56.4791C53.6975 56.8963 52.5382 56.6657 51.7673 55.8948L28.1843 32.3119L4.60133 55.8948C3.54871 56.9475 1.84208 56.9475 0.789463 55.8948C-0.263154 54.8422 -0.263154 53.1356 0.789463 52.083L24.3724 28.5L0.789463 4.917C-0.263154 3.86438 -0.263154 2.15775 0.789463 1.10514ZM31.9962 28.5L50.9778 47.4817V26.7529C50.9778 25.2643 52.1846 24.0576 53.6732 24.0576H72.4462L90.7973 5.70646H54.7897L31.9962 28.5Z" fill="url(#paint0_linear_12_188)"/>
<path fill-rule="evenodd" clip-rule="evenodd" d="M56.9627 14.097C56.9627 12.6084 58.0354 11.4016 59.3586 11.4016H71.8173C73.1406 11.4016 74.2132 12.6084 74.2132 14.097C74.2132 15.5856 73.1406 16.7924 71.8173 16.7924H59.3586C58.0354 16.7924 56.9627 15.5856 56.9627 14.097Z" fill="url(#paint1_linear_12_188)"/>
<defs>
<linearGradient id="paint0_linear_12_188" x1="13.125" y1="44.706" x2="52.8474" y2="-12.2688" gradientUnits="userSpaceOnUse">
<stop stop-color="#E54A64"/>
<stop offset="1" stop-color="#FF9952"/>
</linearGradient>
<linearGradient id="paint1_linear_12_188" x1="59.2268" y1="15.6469" x2="61.9498" y2="8.60203" gradientUnits="userSpaceOnUse">
<stop stop-color="#E54A64"/>
<stop offset="1" stop-color="#FF9952"/>
</linearGradient>
</defs>
</svg>
